<?xml version="1.0" standalone="no"?><!DOCTYPE svg PUBLIC "-//W3C//DTD SVG 1.1//EN" "http://www.w3.org/Graphics/SVG/1.1/DTD/svg11.dtd"><svg t="1524910904428" class="icon" style="" viewBox="0 0 1024 1024" version="1.1" xmlns="http://www.w3.org/2000/svg" p-id="4154" xmlns:xlink="http://www.w3.org/1999/xlink" width="300" height="300"><defs><style type="text/css"></style></defs><path d="M748.8 160 390.4 512l358.4 352c19.2 19.2 19.2 57.6 0 76.8-19.2 19.2-57.6 19.2-76.8 0L281.6 556.8c0 0-6.4 0-6.4-6.4C262.4 544 256 524.8 256 512c0-12.8 6.4-32 19.2-38.4 0 0 6.4 0 6.4-6.4l390.4-390.4c19.2-19.2 57.6-19.2 76.8 0C774.4 102.4 774.4 134.4 748.8 160z" p-id="4155" fill="#b3b3b3"></path></svg>